<!-- Uploaded to: SVG Repo, www.svgrepo.com, Transformed by: SVG Repo Mixer Tools -->
<svg width="800px" height="800px" viewBox="0 0 24 24" xmlns="http://www.w3.org/2000/svg">
  <defs>
    <style>
      .cls-1 {
        fill: #8e8f8f;
        fill-rule: evenodd;
      }
    </style>
  </defs>
  <path id="picture" class="cls-1" d="M1378,264h-20a2,2,0,0,1-2-2V242a2,2,0,0,1,2-2h20a2,2,0,0,1,2,2v20A2,2,0,0,1,1378,264Zm0-22h-20v15.584l5.28-5.265a1.029,1.029,0,0,1,1.44,0l4.31,4.3,8.55-5.472a0.967,0.967,0,0,1,.42-0.126V242Zm0,11.39-8.27,5.294c-0.01.007-.01,0.017-0.02,0.024h0a0.987,0.987,0,0,1-.56.263,0.863,0.863,0,0,1-.88-0.28l-4.27-4.246-5.28,5.266a1.017,1.017,0,0,1-.72.294V262h20v-8.61ZM1363,249a2,2,0,1,1,2-2A2,2,0,0,1,1363,249Z" transform="translate(-1356 -240)"/>
</svg>